<?xml version="1.0" encoding="UTF-8"?>
<svg width="32px" height="32px" viewBox="0 0 32 32" version="1.1" xmlns="http://www.w3.org/2000/svg" xmlns:xlink="http://www.w3.org/1999/xlink">
    <defs></defs>
    <g id="fluxo-desktop" stroke="none" stroke-width="1" fill="none" fill-rule="evenodd">
        <g id="simulacao-condicoes-especiais" transform="translate(-448.000000, -714.000000)" fill="#FFFFFF">
            <g id="simulacao" transform="translate(0.000000, 549.000000)">
                <g id="feedback" transform="translate(432.000000, 146.000000)">
                    <g id="ic_ok" transform="translate(16.000000, 19.000000)">
                        <path d="M22.4615385,9.92307692 L23.8461538,11.3076923 L13.5384615,21.6923077 C13.3333317,21.8974375 13.1025674,22 12.8461538,22 C12.5897403,22 12.358976,21.8974375 12.1538462,21.6923077 L7.84615385,17.3846154 L9.23076923,16 L12.8461538,19.6153846 L22.4615385,9.92307692 Z M16,0 C20.4102794,0 24.1794708,1.56408615 27.3076923,4.69230769 C30.4359138,7.82052923 32,11.5897206 32,16 C32,20.4102794 30.4359138,24.1794708 27.3076923,27.3076923 C24.1794708,30.4359129 20.4102794,32 16,32 C11.5897206,32 7.82052923,30.4359129 4.69230769,27.3076923 C1.56408714,24.1794708 0,20.4102794 0,16 C0,11.5897206 1.56408714,7.82052923 4.69230769,4.69230769 C7.82052923,1.56408615 11.5897206,0 16,0 Z M16,30.6923077 C20.0513034,30.6923077 23.5128074,29.2564244 26.3846154,26.3846154 C29.2564234,23.5128074 30.6923077,20.0513034 30.6923077,16 C30.6923077,11.9486966 29.2564234,8.48719262 26.3846154,5.61538462 C23.5128074,2.74357662 20.0513034,1.30769231 16,1.30769231 C11.9486966,1.30769231 8.48719262,2.74357662 5.61538462,5.61538462 C2.74357563,8.48719262 1.30769231,11.9486966 1.30769231,16 C1.30769231,20.0513034 2.74357563,23.5128074 5.61538462,26.3846154 C8.48719262,29.2564244 11.9486966,30.6923077 16,30.6923077 Z" id="Page-1"></path>
                    </g>
                </g>
            </g>
        </g>
    </g>
</svg>