<?xml version="1.0" encoding="UTF-8"?>
<svg width="20px" height="20px" viewBox="0 0 20 20" version="1.1" xmlns="http://www.w3.org/2000/svg" xmlns:xlink="http://www.w3.org/1999/xlink">
    <title>B93BC9D5-6C24-45D1-841D-4B4158033B88</title>
    <g id="(C)-2-RESULTADO_PF" stroke="none" stroke-width="1" fill="none" fill-rule="evenodd">
        <g id="DESK/6.0---Resultado-da-simulação---correntista---pessoa-física" transform="translate(-572.000000, -359.000000)" fill="#000000" fill-rule="nonzero">
            <g id="Group" transform="translate(570.000000, 355.000000)">
                <g id="Icons-/-Banking-/-ic_offer" transform="translate(1.999850, 3.999950)">
                    <path d="M19.1467466,0.146446609 C19.3420088,-0.0488155365 19.6585912,-0.0488155365 19.8538534,0.146446609 C20.0491155,0.341708755 20.0491155,0.658291245 19.8538534,0.853553391 L19.8538534,0.853553391 L16.87,3.836 L17.6369368,10.7288383 C17.6537261,10.8798157 17.6009686,11.0302382 17.4935534,11.1376534 L8.77755339,19.8536534 C8.58229124,20.0489155 8.26570876,20.0489155 8.07044661,19.8536534 L0.146446609,11.9296534 C-0.0488155365,11.7343912 -0.0488155365,11.4178088 0.146446609,11.2225466 L8.86244661,2.50654661 C8.96986182,2.3991314 9.12028426,2.34637385 9.27126165,2.36316323 L16.163,3.129 Z M9.39960675,3.38360003 L1.20710678,11.5761 L8.424,18.7929932 L16.6165,10.6004933 L15.965,4.741 L14.0388534,6.66855339 C13.865287,6.84211974 13.5958626,6.86140489 13.4009945,6.72640884 L13.3317466,6.66855339 C13.1364845,6.47329124 13.1364845,6.15670876 13.3317466,5.96144661 L13.3317466,5.96144661 L15.258,4.034 L9.39960675,3.38360003 Z M10.8133767,11.9660729 L10.9843534,12.1380466 C11.5726155,12.7263088 11.5726155,13.6848912 10.9843534,14.2731534 L10.2788035,14.9787027 C9.69151375,15.5674906 8.73158387,15.5674906 8.14324661,14.9791534 L7.97124661,14.8071534 C7.38298446,14.2188912 7.38298446,13.2593088 7.97124661,12.6710466 L8.67724661,11.9650466 C9.26443374,11.3778595 10.2236689,11.3778595 10.8133767,11.9660729 Z M9.38435339,12.6721534 L8.67835339,13.3781534 C8.48061554,13.5758912 8.48061554,13.9023088 8.67835339,14.1000466 L8.85035339,14.2720466 C9.04801613,14.4697094 9.37408625,14.4697094 9.57124661,14.2720466 L10.2772466,13.5660466 C10.4749845,13.3683088 10.4749845,13.0428912 10.2762233,12.8441271 L10.1056973,12.6726035 C9.90793109,12.4753405 9.58116626,12.4753405 9.38435339,12.6721534 Z M12.9455,10.0382 C13.2216424,10.0382 13.4455,10.2620576 13.4455,10.5382 C13.4455,10.8143424 13.2216424,11.0382 12.9455,11.0382 L12.9455,11.0382 L5.4765,11.0382 C5.20035763,11.0382 4.9765,10.8143424 4.9765,10.5382 C4.9765,10.2620576 5.20035763,10.0382 5.4765,10.0382 L5.4765,10.0382 Z M10.2796767,6.09737288 L10.4506534,6.26934661 C11.0389155,6.85760876 11.0389155,7.81619124 10.4509039,8.40420273 L9.74565339,9.11045339 C9.15739124,9.69871554 8.19780876,9.69871554 7.60954661,9.11045339 L7.43754661,8.93845339 C6.84928446,8.35019124 6.84928446,7.39060876 7.43754661,6.80234661 L8.14354661,6.09634661 C8.73073374,5.50915948 9.68996891,5.50915948 10.2796767,6.09737288 Z M8.85065339,6.80345339 L8.14465339,7.50945339 C7.94691554,7.70719124 7.94691554,8.03360876 8.14465339,8.23134661 L8.31665339,8.40334661 C8.51439124,8.60108446 8.84080876,8.60108446 9.03829613,8.40359727 L9.74354661,7.69734661 C9.94128446,7.49960876 9.94128446,7.17419124 9.74252331,6.97542712 L9.57199728,6.80390349 C9.37423109,6.60664052 9.04746626,6.60664052 8.85065339,6.80345339 Z" id="Icon"></path>
                </g>
            </g>
        </g>
    </g>
</svg>