<svg xmlns="http://www.w3.org/2000/svg" viewBox="0 0 1793.69 142.6"><defs><style>.cls-1{fill:#FFFFFF;}.cls-2{fill:#FFFFFF;}</style></defs><title>Asset 1signature</title><g id="Layer_2" data-name="Layer 2"><g id="Layer_1-2" data-name="Layer 1"><path class="cls-1" d="M74.36,132.92c6.63-11.61,7-22.93.6-34.26C68.79,87.75,62.27,77,56.22,66.08c-6.22-11.29-5.6-22.6.62-33.42C66.54,53,79,71.79,89.82,91.49a37.06,37.06,0,0,1,3.28,8.7,31.61,31.61,0,0,0,5.16-16,33.19,33.19,0,0,0-4.8-18.73q-9.12-15.6-18.07-31.3c-6-10.5-6.21-21.23-.81-32.05C75,1.34,75.45.6,75.79,0c7.87,17.61,18.75,33.57,28,50.42a30.05,30.05,0,0,1,3.84,12.24c.14,2,1,2.41,2.61,2.86,9.58,2.73,18.66,6.56,26.61,12.71,5.19,4,9.61,8.71,11.94,15,3.88,10.44.63,19.26-6.61,27s-16.48,12.62-26.45,15.8c-29.31,9.33-58.48,9-87.22-2.4-8.46-3.36-16.09-8.19-22-15.32-8.73-10.56-8.68-22.9.13-33.4C13.25,77,21.95,72.2,31.31,68.48c3.18-1.26,6.51-2.15,9.75-3.26,1.27-.43,1.58-.17,1.6,1.24A35.85,35.85,0,0,0,48,84.35c7.44,12.66,14.7,25.41,22.07,38.11A42.41,42.41,0,0,1,74.36,132.92Z"/><path class="cls-1" d="M215.1,37.63A78.47,78.47,0,0,1,237.5,41c1.51.45,2,1.1,1.82,2.67a72.41,72.41,0,0,1-2.19,10.78c-.35,1.18-.68,1.49-2,1a68.63,68.63,0,0,0-19.48-3.6,32.3,32.3,0,0,0-11.61,1.2c-9.42,3.08-11.58,13.68-4.17,20.31a37.8,37.8,0,0,0,10.27,6.05c6.92,3.06,14.06,5.65,20.45,9.81,6.84,4.46,12,10.14,13,18.6,1.87,15.78-5.81,26.81-21.77,30.41A72.29,72.29,0,0,1,181,135.6c-1.8-.64-2.48-1.49-2.26-3.47a70.64,70.64,0,0,1,2-10.33c.39-1.5.93-1.56,2.28-1a61,61,0,0,0,31.9,4.25,21.12,21.12,0,0,0,5.29-1.48c8.06-3.41,10-13,3.88-19.3-3.24-3.33-7.41-5.23-11.52-7.2C206.18,94,199.43,91.7,193.33,88c-12.49-7.56-16.15-19.43-12.58-32.36,2.65-9.6,10-14.18,19.11-16.54A55.92,55.92,0,0,1,215.1,37.63Z"/><path class="cls-1" d="M1347.86,102.06c0-11,0-22.07,0-33.11,0-1.21.07-2.09,1.54-2.44,11.41-2.72,22.89-4.43,34.65-3,4.64.58,9.1,1.8,12.91,4.65,1,.76,1.73.38,2.59,0a56.39,56.39,0,0,1,26.78-5.09,41.25,41.25,0,0,1,9.89,1.67c9.94,3.12,15.66,10.38,16,21.15.33,10.15.12,20.31.14,30.47,0,6.4,0,12.8,0,19.19,0,1.47-.24,2.17-1.92,2a38.47,38.47,0,0,0-6,0c-1.77.14-2.08-.58-2.07-2.18q.08-22,0-43.91a31.3,31.3,0,0,0-.4-5.49c-1.44-8-6.34-12.56-14.47-13.75-8-1.17-15.57.2-23,3-1.23.47-1.27,1-.87,2.12a36.09,36.09,0,0,1,1.8,12c0,15.28,0,30.55.05,45.83,0,1.69-.27,2.5-2.19,2.31a31.64,31.64,0,0,0-5.75,0c-1.77.15-2.06-.55-2.06-2.16q.09-21.35,0-42.71a46.36,46.36,0,0,0-.51-7.4c-1.32-8-6.18-12.22-14.47-13.15-6.83-.77-13.54,0-20.25,1.1-1.79.29-2.4,1-2.39,2.94.09,19.59,0,39.19.11,58.78,0,2.12-.5,2.85-2.63,2.6-2.43-.29-5.62,1-7.13-.53s-.37-4.57-.38-7C1347.83,120.78,1347.86,111.42,1347.86,102.06Z"/><path class="cls-1" d="M336.49,102.09c0-11,0-22.08,0-33.12,0-1.39.27-2.15,1.78-2.47,10.27-2.17,20.57-3.92,31.13-3.39,5.78.29,11.47,1.09,16.79,3.48,9,4,12.77,11.59,12.91,20.95.24,16.08,0,32.16.1,48.24,0,1.49-.39,1.89-1.86,1.85-3.92-.1-7.84-.13-11.76,0-1.79.06-2.06-.62-2.06-2.2.05-14.08,0-28.16,0-42.24,0-11.72-4.35-16.26-16-16.7a85.47,85.47,0,0,0-12.92.59c-1.83.21-2.45.84-2.44,2.81.09,18.32,0,36.64.12,55,0,2.41-.68,2.91-2.91,2.79-3.59-.2-7.2-.15-10.8,0-1.76.07-2.09-.57-2.08-2.18C336.53,124.33,336.49,113.21,336.49,102.09Z"/><path class="cls-1" d="M542.26,102.06c0-11,0-22.07,0-33.11,0-1.41.31-2.14,1.79-2.45,10.34-2.19,20.71-4,31.34-3.39A48.7,48.7,0,0,1,590.58,66c8.42,3.27,12.88,9.56,14,18.39a55.32,55.32,0,0,1,.4,7.17c0,14.55,0,29.11,0,43.66,0,1.86-.44,2.47-2.36,2.39-3.67-.16-7.36-.15-11,0-1.88.08-2.39-.45-2.38-2.36.09-13.91.06-27.83,0-41.74a46.56,46.56,0,0,0-.35-5.73c-.74-5.88-4.19-9.34-9.89-10.54-6.58-1.38-13.19-.88-19.79,0-1.68.24-1.23,1.35-1.23,2.29q0,21.83,0,43.66c0,4.08-.08,8.16,0,12.23,0,1.62-.29,2.22-2.05,2.15-3.83-.15-7.68-.14-11.51,0-1.76.06-2.3-.37-2.28-2.22C542.31,124.29,542.26,113.18,542.26,102.06Z"/><path class="cls-1" d="M454.5,123.84c-.6,4.29-1.15,8.15-1.68,12a2,2,0,0,1-1.69,1.74c-8.29,2.44-16.57,2.69-24.65-.61-7-2.87-10.32-8.71-11.45-15.93a44.5,44.5,0,0,1-.46-6.93q0-35.39,0-70.79c0-1.87.54-2.61,2.35-3a86.91,86.91,0,0,1,11.37-1.61c1.55-.15,2.06.34,2,2-.08,7.6,0,15.2-.07,22.79,0,1.56.38,2,2,2,6.8-.09,13.6,0,20.39-.08,1.78,0,2.41.36,2.15,2.21-.45,3.16-.77,6.34-1.07,9.52-.13,1.38-.69,1.82-2.13,1.8-6.4-.09-12.8,0-19.2-.08-1.63,0-2.16.34-2.15,2.07.08,10.8,0,21.6,0,32.39a17.82,17.82,0,0,0,.93,6.12c1.6,4.45,5.1,6.14,9.45,6.47C445.25,126.24,449.7,125.32,454.5,123.84Z"/><path class="cls-1" d="M850.57,88.6c0-15.44,0-30.87,0-46.31,0-2,.49-2.53,2.5-2.52q25.31.12,50.63,0c2,0,2.58.39,2.42,2.49-.52,7.17-.43,7.18-7.43,7.18-11.92,0-23.83,0-35.75,0-1.77,0-2.3.37-2.28,2.22q.15,14.87,0,29.75c0,2,.63,2.35,2.44,2.34,12.32-.07,24.63,0,37-.08,1.76,0,2.5.35,2.12,2.21-.48,2.41.41,5.6-1.3,7.06-1.31,1.12-4.28.36-6.51.36-10.4,0-20.8.06-31.19,0-2,0-2.54.42-2.52,2.46.1,13.2,0,26.39.09,39.59,0,1.89-.52,2.55-2.4,2.34-2.51-.28-5.89,1.08-7.32-.55-1.25-1.43-.41-4.72-.42-7.19Q850.56,109.24,850.57,88.6Z"/><path class="cls-1" d="M1544.5,102.23c0-11.12,0-22.24,0-33.36,0-1.3.23-2,1.63-2.35,11.25-2.74,22.57-4.46,34.18-2.95a37.38,37.38,0,0,1,8.8,2.17c9.22,3.59,13.54,10.79,13.81,20.25.37,12.87.14,25.75.16,38.63,0,3.76-.06,7.52,0,11.28,0,1.4-.43,1.78-1.76,1.71a43.82,43.82,0,0,0-6,0c-1.84.16-2.25-.49-2.24-2.26.07-14.56,0-29.12,0-43.68a33.11,33.11,0,0,0-.76-7.61c-1.61-6.8-6.59-10.77-14.83-11.8-7.05-.88-14-.17-21,1.12-1.77.33-2,1.1-2,2.7.05,19.52,0,39,.09,58.55,0,2.33-.41,3.3-2.93,3-2.28-.28-5.4.72-6.71-.45-1.51-1.35-.46-4.51-.47-6.88C1544.47,120.95,1544.5,111.59,1544.5,102.23Z"/><path class="cls-1" d="M1101.94,102.24c0-11,0-22.08,0-33.12,0-1.67.45-2.3,2.09-2.71,11.1-2.73,22.28-4.35,33.71-2.81,7,.95,13.59,3,18.13,9a23.87,23.87,0,0,1,4.55,14.61c.14,16.16.08,32.32.15,48.47,0,1.44-.3,2-1.84,1.89a44,44,0,0,0-6.23,0c-1.76.13-2.08-.56-2.08-2.17.06-14.8,0-29.6,0-44.4a28.44,28.44,0,0,0-.76-7.13c-1.78-7-6.86-10.77-15.2-11.7-6.91-.77-13.7,0-20.49,1.15-1.74.31-2.07,1-2.07,2.63.06,19.68,0,39.36.09,59,0,2.1-.46,2.8-2.59,2.59-2.37-.24-5.59.77-7-.44-1.56-1.39-.47-4.66-.49-7.11C1101.91,120.8,1101.94,111.52,1101.94,102.24Z"/><path class="cls-1" d="M948.74,102.24c0-10.72.08-21.43-.06-32.14,0-2.4.51-3.4,3-4,10.82-2.46,21.67-4,32.78-2.55a35.29,35.29,0,0,1,9.91,2.64c9.3,4.16,12.69,12,12.82,21.49.22,16,0,32,.09,48,0,1.42-.28,2.06-1.83,1.92-2.67-.24-6.18,1.11-7.8-.54-1.3-1.33-.39-4.84-.4-7.39q0-19.31,0-38.62a29.62,29.62,0,0,0-.66-6.42C995,77.25,990,73.28,981.49,72.25c-7-.84-13.86-.11-20.73,1.1-1.73.31-2.06,1.06-2.06,2.69.06,19.67,0,39.34.1,59,0,2.2-.62,2.77-2.67,2.56a22.83,22.83,0,0,0-5,0c-2.12.26-2.43-.62-2.41-2.52C948.79,124.15,948.74,113.2,948.74,102.24Z"/><path class="cls-1" d="M1769.93,63a65.44,65.44,0,0,1,19.35,2.87c1.71.54,2.31,1.31,1.91,3s-.11,4.34-1.22,5.48c-1.27,1.32-3.41-.46-5.15-.88-7.46-1.79-15-2.64-22.56-1.26s-11,7.08-8.6,13.81c1.15,3.17,3.63,5,6.51,6.33,4.19,2,8.65,3.26,13,4.78a52.55,52.55,0,0,1,13.08,6.33c10.24,7.16,10.74,26.77-4,33a41.2,41.2,0,0,1-17.59,2.81c-7.23-.22-14.28-1.31-20.9-4.51-1.39-.67-2-1.47-1.68-2.93a9.19,9.19,0,0,0,.07-1c.45-5.81.44-5.75,5.67-3.78,8.52,3.21,17.3,4.42,26.32,2.67,5.62-1.08,8.85-4.13,9.64-8.69.85-4.88-1.39-9.21-6.35-12.09-4.4-2.55-9.35-3.62-14.13-5.13a46.72,46.72,0,0,1-9.9-4.14c-7.76-4.59-11.18-12-9.75-21.17,1.13-7.31,6.73-12.62,15.29-14.55A46,46,0,0,1,1769.93,63Z"/><path class="cls-1" d="M775.86,102.05c0-11,0-22.08,0-33.11a2.22,2.22,0,0,1,2-2.61c11.94-3.28,24.09-3.79,36.37-3,1.61.1,2,.75,1.89,2.22a79.08,79.08,0,0,1-1,9.76c-.22,1.21-.66,1.64-2.06,1.52a106.08,106.08,0,0,0-18.91,0c-2.07.19-2.62.77-2.61,2.84.09,18.32,0,36.63.11,54.95,0,2.39-.54,3.16-3,3-3.58-.24-7.2-.14-10.79,0-1.56,0-2-.4-2-2C775.9,124.45,775.86,113.25,775.86,102.05Z"/><path class="cls-1" d="M1620.5,81.4c0-12.87,0-25.74,0-38.61,0-1.77.44-2.57,2.25-2.84,2-.29,3.92-.67,5.91-.88,1.53-.16,1.86.34,1.84,1.8-.07,7.35,0,14.71-.08,22.06,0,1.86.54,2.24,2.29,2.22,7.11-.1,14.23,0,21.34-.08,1.75,0,2.18.47,1.95,2.2-.3,2.2.31,5-1.08,6.44s-4.1.4-6.23.42c-5.51.06-11,0-16.55,0-1.14,0-1.71.16-1.7,1.53.1,13.91.13,27.81.21,41.72a17,17,0,0,0,.37,3.33c1.28,6.18,5.06,9.5,11.44,10a31.48,31.48,0,0,0,12.25-1.69c1.34-.44,1.76-.3,1.66,1.28-.44,6.69-.95,7.39-7.48,8.54a33.85,33.85,0,0,1-12.63,0c-9.36-1.88-14.93-8.31-15.46-18.09-.62-11.42-.13-22.85-.25-34.28C1620.48,84.76,1620.5,83.08,1620.5,81.4Z"/><path class="cls-1" d="M1228.18,125.25a60.06,60.06,0,0,1-1,8.3c-.17,1.21-1.1,1.52-1.89,2a33.4,33.4,0,0,1-19.47,3.74c-18.08-1.56-29.26-12.75-31.14-30.85-.85-8.21-.48-16.27,2.39-24.09,4.5-12.26,13.68-18.67,26.21-20.66a46.19,46.19,0,0,1,23.16,1.9c1.69.6,2.25,1.42,1.88,3.16-.41,1.95,0,4.63-1.09,5.73-1.31,1.26-3.47-.8-5.32-1.23a40.85,40.85,0,0,0-18-.51c-8.48,1.84-14.46,6.69-17.26,14.91a40.13,40.13,0,0,0,.6,28.81c3.61,8.88,10.65,13.26,20,14a33.08,33.08,0,0,0,19.3-4.52c.41-.23.84-.42,1.26-.62C1227.95,125.18,1228,125.23,1228.18,125.25Z"/><path class="cls-1" d="M919.54,101c0-11.43,0-22.86,0-34.3,0-1.66.4-2.31,2.12-2.13,2.6.26,6.09-1.11,7.57.54,1.29,1.43.42,4.86.42,7.41,0,20.87,0,41.73.06,62.6,0,2-.43,2.69-2.46,2.48a32.57,32.57,0,0,0-5.75,0c-1.67.13-2-.56-1.95-2.05C919.57,124.06,919.54,112.54,919.54,101Z"/><path class="cls-1" d="M1242.42,101.2c0-11.43,0-22.85,0-34.28,0-1.94.55-2.49,2.4-2.33a37.47,37.47,0,0,0,5.75,0c1.56-.11,1.85.53,1.85,1.93q-.05,34.64,0,69.27c0,1.55-.53,1.9-1.95,1.82a44.29,44.29,0,0,0-6,0c-1.76.14-2.07-.53-2.06-2.15C1242.46,124.05,1242.42,112.63,1242.42,101.2Z"/><path class="cls-2" d="M918,46.94a6.63,6.63,0,1,1,13.26,0,6.63,6.63,0,0,1-13.26,0Z"/><path class="cls-2" d="M1247.46,40.15a6.49,6.49,0,0,1,6.48,6.82,6.64,6.64,0,0,1-13.28-.33A6.47,6.47,0,0,1,1247.46,40.15Z"/><path class="cls-1" d="M683.71,65.54c0-8.24,0-16.47,0-24.71,0-1.64-.37-2.28-2.1-2.15a68.94,68.94,0,0,0-11.38,1.48,2.35,2.35,0,0,0-2.13,2.77c.13,6.47,0,13,.06,19.43,0,1.07,0,1.78-1.53,1.5A58.47,58.47,0,0,0,648,63.59c-13.75,2-24,8.58-28.41,22.27a52.53,52.53,0,0,0-.33,31.18c4.67,16.18,17.74,24.41,34.4,21.87a20.33,20.33,0,0,0,14.61-9.74c.78,2.39.61,4.58.82,6.7.15,1.48.71,1.8,2.09,1.76,3.36-.1,6.72-.16,10.07,0,2,.11,2.47-.56,2.47-2.52C683.68,111.92,683.71,88.73,683.71,65.54Zm-17.1,56.78a24.8,24.8,0,0,1-16.63,4c-7.82-.86-12.85-5.32-15.12-12.71a38.71,38.71,0,0,1,0-23.11c2.58-8.42,9.23-13.48,18-14a58.13,58.13,0,0,1,13.59.88c1.48.26,1.77.88,1.76,2.2-.05,6.63,0,13.26,0,19.9s0,13.11,0,19.66A3.21,3.21,0,0,1,666.61,122.32Z"/><path class="cls-1" d="M762,87.93c-2.13-12-8.55-20.25-20.56-23.63a44.93,44.93,0,0,0-14.51-1.19c-14.45.71-25.06,9.24-28.8,23.16A55.23,55.23,0,0,0,697.8,114c2.72,11.2,9.44,19,20.44,22.85a46.7,46.7,0,0,0,13.15,2.38c8.46.43,16.74-.47,24.66-3.68.88-.35,1.79-.62,2-1.8.7-4.24,1.45-8.48,2.27-13.19-1.35.52-2.31.9-3.27,1.26-8.88,3.32-18,4.92-27.47,3.69-9.72-1.26-16.37-8.22-17.16-18.17h47.24c1.09,0,2.2.28,2.36-1.49C762.56,99.87,763.06,93.89,762,87.93Zm-15.22,5.36c-.15,1.36-1,1-1.68,1-5.27,0-10.55,0-15.82,0s-10.39,0-15.58,0c-.64,0-1.58.5-1.64-1-.29-6.63,5.16-14.42,11.59-16.32a20.36,20.36,0,0,1,13.84.54C743.16,79.87,747.45,87.3,746.78,93.29Z"/><path class="cls-1" d="M319.76,69c0-1.75-.64-2.3-2.17-2.74a78.39,78.39,0,0,0-36.27-2.09c-11.69,2.18-20.55,8.44-24.7,19.93a51.86,51.86,0,0,0,.48,37.25c8.33,21.59,38.14,23.21,47.43,8.19.24,2.33.53,4.14.57,6,0,1.61.55,2.22,2.25,2.15,3.43-.13,6.88-.14,10.32,0,1.76.07,2.08-.58,2.07-2.18Q319.67,102.21,319.76,69ZM304.1,99.33c0,6.79,0,13.58,0,20.37a2.77,2.77,0,0,1-1.42,2.71,24,24,0,0,1-19.46,3.35c-6-1.48-9.82-5.51-11.76-11.22a37.21,37.21,0,0,1-.18-24.21c2.9-8.73,9.44-12.95,18.31-13.74a58.84,58.84,0,0,1,12.67.34c1.44.18,1.84.6,1.83,2C304.06,85.75,304.1,92.54,304.1,99.33Z"/><path class="cls-1" d="M525.5,68.9a2.27,2.27,0,0,0-2-2.61A77.88,77.88,0,0,0,487,64.16c-12.28,2.31-21.23,9.13-25.14,21.32a52.06,52.06,0,0,0,.69,35c6.76,17.94,24.51,21.19,36.56,17.55,4.6-1.39,8.09-4.29,11.18-8.57.27,2.47.58,4.28.62,6.11,0,1.51.46,2.08,2.07,2,3.52-.12,7-.12,10.56,0,1.62.06,2-.48,2-2Q525.43,102.26,525.5,68.9Zm-17.17,53.65a24.19,24.19,0,0,1-19,3.3c-6.78-1.62-10.69-6.34-12.55-12.85a39.11,39.11,0,0,1-.31-20.59c2.41-9.55,9.35-15.27,19.17-15.86a68.33,68.33,0,0,1,12.44.36c1.58.19,2,.75,1.94,2.24-.07,6.79,0,13.59,0,20.38,0,6.63,0,13.27,0,19.9A3.18,3.18,0,0,1,508.33,122.55Z"/><path class="cls-1" d="M1528.56,87.72c-1.94-10.77-7.1-19.07-17.9-22.91-4.74-1.69-9.67-1.92-14.65-1.72-12.89.53-22.82,7.89-27,20.09-3,8.73-3.35,17.67-2.07,26.73a39.06,39.06,0,0,0,3.85,12.52c3.68,7.15,9.26,12.22,17,14.61,12,3.73,23.92,3.28,35.44-2.19.87-.41,1.73-.79,1.9-1.93a64.91,64.91,0,0,0,1.16-8.48,49.06,49.06,0,0,1-24.15,6c-14.52-.11-23.81-8.5-25.4-23-.24-2.15.08-2.85,2.45-2.84,15.75.11,31.5,0,47.26.11,1.93,0,2.51-.67,2.58-2.38C1529.18,97.43,1529.43,92.55,1528.56,87.72Zm-11.23,7.94c-6.48,0-13,0-19.43,0s-13,0-19.43,0c-1.6,0-2.07-.38-1.85-2a36.3,36.3,0,0,1,2.76-10.36c5.86-12.78,24.55-15.88,34.19-5.6,4.42,4.71,5.43,10.69,5.64,16.87C1519.26,96.06,1518.12,95.65,1517.33,95.66Z"/><path class="cls-1" d="M1083,69.1c0-1.64-.45-2.35-2-2.87a66.4,66.4,0,0,0-31-2.5c-13,2-22.27,9-26.07,21.93a54.53,54.53,0,0,0,.32,32.82c3.54,10.85,10.89,17.81,22.3,20.09,9.66,1.93,18.57.42,26.53-6,1.06,1.72-.47,4.13,1.34,4.87,1.51.62,3.47.14,5.23.14a6.94,6.94,0,0,1,1.2,0c1.89.34,2.21-.55,2.21-2.26Q1082.87,102.22,1083,69.1Zm-12,56.44c-8.21,6.56-20.78,7.39-28.91,1.81-5.27-3.61-7.85-8.93-9.17-14.92a47.42,47.42,0,0,1,.28-22.32c2.65-10.23,9.66-16.42,20.11-17.84a53,53,0,0,1,17.62.8c1.51.3,2.1.9,1.89,2.36a1.72,1.72,0,0,0,0,.24q0,11.63,0,23.27c0,7.6-.05,15.19,0,22.79A4.34,4.34,0,0,1,1071,125.55Z"/><path class="cls-1" d="M1328.89,69.55c0-2.22-.8-3-2.73-3.58a67.84,67.84,0,0,0-29.84-2.3c-12.17,1.78-21.45,7.8-25.74,19.77a53.69,53.69,0,0,0-.46,35c3.12,9.83,9.57,16.71,19.73,19.48,10.51,2.87,20.39,1.67,29.36-5.6.37,5.23.37,5.23,5.37,5.23a10.2,10.2,0,0,1,1.68,0c2.09.35,2.64-.43,2.63-2.57Q1328.75,102.29,1328.89,69.55ZM1318.82,98.9q0,11.63,0,23.25a2.93,2.93,0,0,1-.7,2.38c-7.93,8.21-24.19,8.75-32.4,1-4.77-4.52-6.77-10.39-7.5-16.68-.93-8-.81-15.94,2.62-23.48,3.62-7.94,10.14-11.82,18.47-13a51.7,51.7,0,0,1,17.37.75c1.89.36,2.18,1.18,2.17,2.85C1318.78,83.56,1318.82,91.23,1318.82,98.9Z"/><path class="cls-1" d="M1730.65,95.84c-1.59-20.55-14.37-33.65-35.76-32.77-14.84.61-25.55,7.81-30.23,20.92a50.49,50.49,0,0,0,0,35c3.68,10.15,10.92,16.7,21.49,19.3a41.27,41.27,0,0,0,15.94.66c11.4-1.66,19.88-7.39,24.77-18a45.32,45.32,0,0,0,3.77-20.27C1730.66,99,1730.77,97.42,1730.65,95.84Zm-11.38,17c-3.64,13.65-14.3,18.82-26.74,17.2-11.36-1.48-18.11-8.63-19.95-20.34a72.15,72.15,0,0,1-.71-8A41.9,41.9,0,0,1,1674.06,87c3.73-10.1,12.65-15.54,23.4-15,14.47.72,21.74,10.14,23,24.21A47.44,47.44,0,0,1,1719.27,112.85Z"/></g></g></svg>