<?xml version="1.0" encoding="UTF-8"?>
<svg width="56px" height="56px" viewBox="0 0 56 56" version="1.1" xmlns="http://www.w3.org/2000/svg" xmlns:xlink="http://www.w3.org/1999/xlink">
    <!-- Generator: Sketch 46.2 (44496) - http://www.bohemiancoding.com/sketch -->
    <title>icon_money</title>
    <desc>Created with Sketch.</desc>
    <defs>
        <circle id="path-1" cx="28" cy="28" r="28"></circle>
    </defs>
    <g id="Desktop---fluxo_mvp-18/08" stroke="none" stroke-width="1" fill="none" fill-rule="evenodd">
        <g id="Aprovação-@2x" transform="translate(-933.000000, -317.000000)">
            <g id="resultado" transform="translate(930.000000, 198.000000)">
                <g id="Argumentos-1" transform="translate(3.000000, 112.000000)">
                    <g id="icon_money" transform="translate(0.000000, 7.000000)">
                        <g id="Oval-4">
                            <use fill="#FFFFFF" fill-rule="evenodd" xlink:href="#path-1"></use>
                            <circle stroke="#F3123C" stroke-width="2" cx="28" cy="28" r="27"></circle>
                        </g>
                        <g id="Group-3" transform="translate(17.000000, 18.000000)" stroke="#F3123C" stroke-linecap="round" stroke-linejoin="round">
                            <path d="M21,14.4995 L21,16.9995 C21,18.9335 19.434,20.4995 17.5,20.4995 L2,20.4995 C0.896,20.4995 0,19.6045 0,18.4995 L0,5.4995 C0,4.3945 0.896,3.4995 2,3.4995 L17.5,3.4995 C19.434,3.4995 21,5.0655 21,6.9995 L21,9.4995" id="Stroke-47"></path>
                            <path d="M23,12.6245 C23,13.6615 22.226,14.4995 21.27,14.4995 L17.231,14.4995 C16.275,14.4995 15.5,13.6615 15.5,12.6245 L15.5,11.3745 C15.5,10.3385 16.275,9.4995 17.231,9.4995 L21.27,9.4995 C22.226,9.4995 23,10.3385 23,11.3745 L23,12.6245 Z" id="Stroke-49"></path>
                            <path d="M18.5,11.9995 C18.5,12.2755 18.276,12.4995 18,12.4995 C17.724,12.4995 17.5,12.2755 17.5,11.9995 C17.5,11.7235 17.724,11.4995 18,11.4995 C18.276,11.4995 18.5,11.7235 18.5,11.9995 Z" id="Stroke-51"></path>
                            <polyline id="Stroke-53" points="17.8799 3.52 16.9999 0 3.9999 3.5"></polyline>
                            <path d="M2,5.4995 L3,5.4995" id="Stroke-55"></path>
                            <path d="M5,5.4995 L6,5.4995" id="Stroke-57"></path>
                            <path d="M8,5.4995 L9,5.4995" id="Stroke-59"></path>
                            <path d="M11,5.4995 L12,5.4995" id="Stroke-61"></path>
                            <path d="M14,5.4995 L15,5.4995" id="Stroke-63"></path>
                            <path d="M17,5.4995 L18,5.4995" id="Stroke-65"></path>
                            <path d="M2,18.4995 L3,18.4995" id="Stroke-67"></path>
                            <path d="M5,18.4995 L6,18.4995" id="Stroke-69"></path>
                            <path d="M8,18.4995 L9,18.4995" id="Stroke-71"></path>
                            <path d="M11,18.4995 L12,18.4995" id="Stroke-73"></path>
                            <path d="M14,18.4995 L15,18.4995" id="Stroke-75"></path>
                            <path d="M17,18.4995 L18,18.4995" id="Stroke-77"></path>
                        </g>
                    </g>
                </g>
            </g>
        </g>
    </g>
</svg>